<svg width="150" height="150" viewBox="0 0 150 150" fill="none" xmlns="http://www.w3.org/2000/svg">
<path d="M58.6 72.6C65.6 83.5 68.6 90.5 73.5 99C75.5 102.4 74.8 106.1 72.7 109.4C69.7 114.2 66.6 118.9 63.7 123.7C61.9 126.6 61.3 129.6 64.3 132.2C53 132.3 41.7 132.5 30.5 132.4C25 132.4 22.7 128.3 25.7 123.6C36.2 107.2 47.9 89 58.6 72.6ZM128.7 44.2C113.5 44.1 76.9 44.2 74.6 44.2C70.1 37.2 67.6 30.2 63.4 23.3C61.6 20.3 61.4 17.4 64.8 15.2H110.8C116.7 24.2 122.6 33.3 128.6 42.4C129 43 129.1 43.6 128.7 44.2Z" fill="white"/>
<path d="M25.9 24.5C22.7 19.2 24.7 15.3 30.9 15.2C42.2 15.1 53.5 15.2 64.7 15.3C61.3 17.5 61.5 20.4 63.3 23.4C67.6 30.3 85.5 58.8 90.1 65.1C94.6 71.2 94.9 76.4 90.2 82.6C85.5 88.9 81.5 95.9 76.8 103.2H129.6L110.7 132.3H64.3C61.3 129.7 61.9 126.7 63.7 123.8C66.7 119 69.8 114.3 72.7 109.5C74.7 106.2 75.4 102.5 73.5 99.1C68.6 90.6 29.8 30.8 25.9 24.5V24.5Z" fill="#FF789E"/>
</svg>
